<svg width="67" height="20" viewBox="0 0 67 20" fill="none" xmlns="http://www.w3.org/2000/svg">
<path d="M28.0341 3.86364V15.5H26.2784V3.86364H28.0341ZM32.1534 10.3182V15.5H30.4545V6.77273H32.0852V8.19318H32.1932C32.3939 7.73106 32.7083 7.35985 33.1364 7.07955C33.5682 6.79924 34.1117 6.65909 34.767 6.65909C35.3617 6.65909 35.8826 6.78409 36.3295 7.03409C36.7765 7.2803 37.1231 7.64773 37.3693 8.13636C37.6155 8.625 37.7386 9.22917 37.7386 9.94886V15.5H36.0398V10.1534C36.0398 9.52083 35.875 9.02652 35.5455 8.67045C35.2159 8.31061 34.7633 8.13068 34.1875 8.13068C33.7936 8.13068 33.4432 8.21591 33.1364 8.38636C32.8333 8.55682 32.5928 8.80682 32.4148 9.13636C32.2405 9.46212 32.1534 9.85606 32.1534 10.3182ZM47.1705 6.77273L44.0057 15.5H42.1875L39.017 6.77273H40.8409L43.0511 13.4886H43.142L45.3466 6.77273H47.1705ZM48.767 15.5V6.77273H50.4659V15.5H48.767ZM49.625 5.42614C49.3295 5.42614 49.0758 5.32765 48.8636 5.13068C48.6553 4.92992 48.5511 4.69129 48.5511 4.41477C48.5511 4.13447 48.6553 3.89583 48.8636 3.69886C49.0758 3.49811 49.3295 3.39773 49.625 3.39773C49.9205 3.39773 50.1723 3.49811 50.3807 3.69886C50.5928 3.89583 50.6989 4.13447 50.6989 4.41477C50.6989 4.69129 50.5928 4.92992 50.3807 5.13068C50.1723 5.32765 49.9205 5.42614 49.625 5.42614ZM56.8253 6.77273V8.13636H52.0582V6.77273H56.8253ZM53.3366 4.68182H55.0355V12.9375C55.0355 13.267 55.0848 13.5152 55.1832 13.6818C55.2817 13.8447 55.4086 13.9564 55.5639 14.017C55.723 14.0739 55.8954 14.1023 56.081 14.1023C56.2173 14.1023 56.3366 14.0928 56.4389 14.0739C56.5412 14.0549 56.6207 14.0398 56.6776 14.0284L56.9844 15.4318C56.8859 15.4697 56.7457 15.5076 56.5639 15.5455C56.3821 15.5871 56.1548 15.6098 55.8821 15.6136C55.4351 15.6212 55.0185 15.5417 54.6321 15.375C54.2457 15.2083 53.9332 14.9508 53.6946 14.6023C53.456 14.2538 53.3366 13.8163 53.3366 13.2898V4.68182ZM62.3722 15.6761C61.5123 15.6761 60.7718 15.4924 60.1506 15.125C59.5331 14.7538 59.0559 14.233 58.7188 13.5625C58.3854 12.8883 58.2188 12.0985 58.2188 11.1932C58.2188 10.2992 58.3854 9.51136 58.7188 8.82955C59.0559 8.14773 59.5256 7.61553 60.1278 7.23295C60.7339 6.85038 61.4422 6.65909 62.2528 6.65909C62.7453 6.65909 63.2225 6.74053 63.6847 6.90341C64.1468 7.06629 64.5616 7.32197 64.929 7.67045C65.2964 8.01894 65.5862 8.47159 65.7983 9.02841C66.0104 9.58144 66.1165 10.2538 66.1165 11.0455V11.6477H59.179V10.375H64.4517C64.4517 9.92803 64.3608 9.5322 64.179 9.1875C63.9972 8.83902 63.7415 8.56439 63.4119 8.36364C63.0862 8.16288 62.7036 8.0625 62.2642 8.0625C61.7869 8.0625 61.3703 8.17992 61.0142 8.41477C60.6619 8.64583 60.3892 8.94886 60.196 9.32386C60.0066 9.69508 59.9119 10.0985 59.9119 10.5341V11.5284C59.9119 12.1117 60.0142 12.608 60.2188 13.017C60.4271 13.4261 60.7169 13.7386 61.0881 13.9545C61.4593 14.1667 61.893 14.2727 62.3892 14.2727C62.7112 14.2727 63.0047 14.2273 63.2699 14.1364C63.535 14.0417 63.7642 13.9015 63.9574 13.7159C64.1506 13.5303 64.2983 13.3011 64.4006 13.0284L66.0085 13.3182C65.8797 13.7917 65.6487 14.2064 65.3153 14.5625C64.9858 14.9148 64.571 15.1894 64.071 15.3864C63.5748 15.5795 63.0085 15.6761 62.3722 15.6761Z" fill="#5030E5"/>
<path d="M6 10.5H12" stroke="#5030E5" stroke-linecap="round" stroke-linejoin="round"/>
<path d="M9 13.5V7.5" stroke="#5030E5" stroke-linecap="round" stroke-linejoin="round"/>
<path d="M6.75 18H11.25C15 18 16.5 16.5 16.5 12.75V8.25C16.5 4.5 15 3 11.25 3H6.75C3 3 1.5 4.5 1.5 8.25V12.75C1.5 16.5 3 18 6.75 18Z" fill="#5030E5" fill-opacity="0.2"/>
</svg>
