<svg width="24" height="24" viewBox="0 0 24 24" fill="none" xmlns="http://www.w3.org/2000/svg">
<rect width="24" height="24" fill="#E5E5E5"/>
<g clip-path="url(#clip0_0_1)">
<rect width="1600" height="1200" transform="translate(-193 -824)" fill="#E7E8EA"/>
<g filter="url(#filter0_d_0_1)">
<rect x="-113" y="-690" width="1440" height="932" rx="30" fill="white"/>
</g>
<g filter="url(#filter1_d_0_1)">
<path fill-rule="evenodd" clip-rule="evenodd" d="M45 12C45 -6.2254 30.2254 -21 12 -21C-6.2254 -21 -21 -6.2254 -21 12H-75C-83.8366 12 -91 19.1634 -91 28V196C-91 204.837 -83.8366 212 -75 212H99C107.837 212 115 204.837 115 196V28C115 19.1634 107.837 12 99 12H45Z" fill="#F5F5F5"/>
</g>
<g filter="url(#filter2_f_0_1)">
<circle cx="11.5" cy="11.5" r="16.5" fill="#FCD64A" fill-opacity="0.7"/>
</g>
<path d="M19.21 6.36C18.17 4.26 16.16 2.71 13.83 2.2C11.39 1.66 8.88997 2.24 6.97997 3.78C5.05997 5.31 3.96997 7.6 3.96997 10.05C3.96997 12.64 5.51997 15.35 7.85997 16.92V17.75C7.84997 18.03 7.83997 18.46 8.17997 18.81C8.52997 19.17 9.04997 19.21 9.45997 19.21H14.59C15.13 19.21 15.54 19.06 15.82 18.78C16.2 18.39 16.19 17.89 16.18 17.62V16.92C19.28 14.83 21.23 10.42 19.21 6.36Z" fill="#FBCB18"/>
<path d="M15.26 22C15.2 22 15.13 21.99 15.07 21.97C13.06 21.4 10.95 21.4 8.93997 21.97C8.56997 22.07 8.17997 21.86 8.07997 21.49C7.96997 21.12 8.18997 20.73 8.55997 20.63C10.82 19.99 13.2 19.99 15.46 20.63C15.83 20.74 16.05 21.12 15.94 21.49C15.84 21.8 15.56 22 15.26 22Z" fill="#FBCB18"/>
</g>
<defs>
<filter id="filter0_d_0_1" x="-203" y="-736" width="1620" height="1112" filterUnits="userSpaceOnUse" color-interpolation-filters="sRGB">
<feFlood flood-opacity="0" result="BackgroundImageFix"/>
<feColorMatrix in="SourceAlpha" type="matrix" values="0 0 0 0 0 0 0 0 0 0 0 0 0 0 0 0 0 0 127 0" result="hardAlpha"/>
<feMorphology radius="6" operator="dilate" in="SourceAlpha" result="effect1_dropShadow_0_1"/>
<feOffset dy="44"/>
<feGaussianBlur stdDeviation="42"/>
<feComposite in2="hardAlpha" operator="out"/>
<feColorMatrix type="matrix" values="0 0 0 0 0.847059 0 0 0 0 0.85098 0 0 0 0 0.858824 0 0 0 1 0"/>
<feBlend mode="normal" in2="BackgroundImageFix" result="effect1_dropShadow_0_1"/>
<feBlend mode="normal" in="SourceGraphic" in2="effect1_dropShadow_0_1" result="shape"/>
</filter>
<filter id="filter1_d_0_1" x="-95" y="-21" width="214" height="241" filterUnits="userSpaceOnUse" color-interpolation-filters="sRGB">
<feFlood flood-opacity="0" result="BackgroundImageFix"/>
<feColorMatrix in="SourceAlpha" type="matrix" values="0 0 0 0 0 0 0 0 0 0 0 0 0 0 0 0 0 0 127 0" result="hardAlpha"/>
<feOffset dy="4"/>
<feGaussianBlur stdDeviation="2"/>
<feComposite in2="hardAlpha" operator="out"/>
<feColorMatrix type="matrix" values="0 0 0 0 0 0 0 0 0 0 0 0 0 0 0 0 0 0 0.25 0"/>
<feBlend mode="normal" in2="BackgroundImageFix" result="effect1_dropShadow_0_1"/>
<feBlend mode="normal" in="SourceGraphic" in2="effect1_dropShadow_0_1" result="shape"/>
</filter>
<filter id="filter2_f_0_1" x="-39" y="-39" width="101" height="101" filterUnits="userSpaceOnUse" color-interpolation-filters="sRGB">
<feFlood flood-opacity="0" result="BackgroundImageFix"/>
<feBlend mode="normal" in="SourceGraphic" in2="BackgroundImageFix" result="shape"/>
<feGaussianBlur stdDeviation="17" result="effect1_foregroundBlur_0_1"/>
</filter>
<clipPath id="clip0_0_1">
<rect width="1600" height="1200" fill="white" transform="translate(-193 -824)"/>
</clipPath>
</defs>
</svg>
